<svg width="355" height="258" viewBox="0 0 355 258" fill="none" xmlns="http://www.w3.org/2000/svg">
<g clip-path="url(#clip0_199_172)">
<path d="M206.787 45.4821C213.441 45.4821 218.834 40.0925 218.834 33.4442C218.834 26.7958 213.441 21.4062 206.787 21.4062C200.134 21.4062 194.74 26.7958 194.74 33.4442C194.74 40.0925 200.134 45.4821 206.787 45.4821Z" fill="#F2F2F2"/>
<path d="M300.239 224.139C318.145 210.511 326.698 187.609 321.343 165.763C321.21 165.22 321.07 164.678 320.922 164.138C317.372 151.17 308.591 138.845 295.791 134.702C285.044 131.222 273.313 133.898 262.102 132.514C240.092 129.798 223.029 112.003 211.023 93.3721C199.016 74.7407 189.789 53.8856 173.835 38.4933C147.538 13.1218 104.641 7.6593 72.0364 24.1743C39.4318 40.6893 18.663 77.3291 19.5487 113.845C20.4345 150.362 42.1288 185.274 73.6343 203.797C85.2081 210.601 98.5944 215.422 111.916 213.735C123.476 212.271 133.979 206.065 145.484 204.222C163.572 201.325 181.545 209.498 197.191 219.021C212.836 228.544 227.948 239.832 245.726 244.247C262.989 248.534 284.376 236.212 300.239 224.139Z" fill="#F2F2F2"/>
<path d="M274.511 24.9408C274.119 24.6793 273.722 24.4313 273.329 24.1789C261.983 16.9274 249.821 11.0363 237.095 6.62743L234.144 47.3027H215.438V0.689793C214.26 0.446337 213.074 0.216406 211.887 0V47.3027H189.657C177.42 47.3027 165.683 42.445 157.03 33.798C148.376 25.1511 143.515 13.4234 143.515 1.19479V1.19475C142.324 1.45173 141.142 1.72675 139.96 2.0198V47.3028H121.854L119.043 8.51648C105.965 13.5282 93.5496 20.1189 82.0728 28.1418C81.8743 28.2771 81.6757 28.4168 81.4817 28.5521C80.4846 29.2509 79.501 29.9632 78.522 30.6846V185.861H131.883L130.94 172.809L125.752 101.147H230.241L225.053 172.809L224.11 185.861H276.88V26.5097C276.095 25.9778 275.306 25.4548 274.511 24.9408ZM139.96 89.3125H124.895L122.111 50.8554H139.96V89.3125ZM211.887 89.3125H186.585V88.5506C186.585 88.1843 186.513 87.8217 186.372 87.4833C186.232 87.145 186.026 86.8376 185.767 86.5788C185.507 86.3201 185.199 86.1149 184.861 85.9752C184.522 85.8354 184.159 85.7638 183.792 85.7644H172.792C172.426 85.7642 172.063 85.8362 171.725 85.9762C171.387 86.1162 171.079 86.3214 170.82 86.5801C170.561 86.8389 170.356 87.1461 170.216 87.4842C170.076 87.8223 170.004 88.1847 170.004 88.5506V89.3125H143.515V50.8554H211.887V89.3125ZM215.438 89.3125V50.8554H233.887L231.103 89.3125H215.438Z" fill="#3F3D56"/>
<path d="M0 195.798C3.91954 200.439 8.15897 204.8 12.6873 208.85L342.313 209.301C346.841 205.251 351.08 200.889 355 196.249L0 195.798Z" fill="#3F3D56"/>
<path d="M223.53 154.005V192.645C223.53 193.137 223.726 193.609 224.075 193.957C224.423 194.306 224.895 194.501 225.388 194.502H282.69C283.183 194.501 283.656 194.306 284.004 193.957C284.353 193.609 284.549 193.137 284.549 192.645V154.005C284.548 153.513 284.352 153.042 284.003 152.694C283.655 152.347 283.183 152.151 282.69 152.15H225.388C224.896 152.151 224.424 152.347 224.076 152.694C223.727 153.042 223.531 153.513 223.53 154.005Z" fill="#3F3D56"/>
<path d="M224.874 154.486V192.168C224.874 192.431 224.979 192.683 225.165 192.869C225.352 193.055 225.604 193.16 225.867 193.16H282.214C282.477 193.16 282.729 193.055 282.915 192.869C283.102 192.683 283.206 192.431 283.207 192.168V154.486C283.207 154.222 283.102 153.97 282.916 153.783C282.73 153.597 282.477 153.492 282.214 153.491H225.867C225.604 153.492 225.351 153.597 225.165 153.783C224.979 153.97 224.874 154.222 224.874 154.486Z" fill="#2F5D62"/>
<path d="M222.332 200.18C222.436 200.312 222.57 200.418 222.722 200.491C222.874 200.563 223.04 200.6 223.208 200.6H284.566C284.733 200.599 284.899 200.562 285.051 200.49C285.202 200.417 285.335 200.312 285.441 200.182C285.547 200.052 285.622 199.9 285.662 199.737C285.701 199.574 285.704 199.404 285.669 199.24L284.717 194.719C284.677 194.535 284.592 194.363 284.47 194.22C284.347 194.077 284.19 193.967 284.014 193.9C283.886 193.85 283.75 193.824 283.613 193.824H224.157C224.02 193.824 223.884 193.85 223.756 193.9C223.58 193.967 223.423 194.077 223.301 194.22C223.178 194.363 223.093 194.535 223.053 194.719L222.101 199.24C222.067 199.404 222.07 199.574 222.11 199.736C222.15 199.899 222.226 200.051 222.332 200.18Z" fill="#2F2E41"/>
<path d="M281.508 195.771H282.957C283.079 195.771 283.177 195.672 283.177 195.55V194.858C283.177 194.736 283.079 194.637 282.957 194.637H281.508C281.386 194.637 281.287 194.736 281.287 194.858V195.55C281.287 195.672 281.386 195.771 281.508 195.771Z" fill="#3F3D56"/>
<path d="M277.728 195.771H279.177C279.299 195.771 279.397 195.672 279.397 195.55V194.858C279.397 194.736 279.299 194.637 279.177 194.637H277.728C277.606 194.637 277.508 194.736 277.508 194.858V195.55C277.508 195.672 277.606 195.771 277.728 195.771Z" fill="#3F3D56"/>
<path d="M273.948 195.771H275.397C275.519 195.771 275.618 195.672 275.618 195.55V194.858C275.618 194.736 275.519 194.637 275.397 194.637H273.948C273.827 194.637 273.728 194.736 273.728 194.858V195.55C273.728 195.672 273.827 195.771 273.948 195.771Z" fill="#3F3D56"/>
<path d="M270.169 195.771H271.618C271.74 195.771 271.838 195.672 271.838 195.55V194.858C271.838 194.736 271.74 194.637 271.618 194.637H270.169C270.047 194.637 269.949 194.736 269.949 194.858V195.55C269.949 195.672 270.047 195.771 270.169 195.771Z" fill="#3F3D56"/>
<path d="M266.389 195.771H267.838C267.96 195.771 268.059 195.672 268.059 195.55V194.858C268.059 194.736 267.96 194.637 267.838 194.637H266.389C266.267 194.637 266.169 194.736 266.169 194.858V195.55C266.169 195.672 266.267 195.771 266.389 195.771Z" fill="#3F3D56"/>
<path d="M262.61 195.771H264.059C264.181 195.771 264.279 195.672 264.279 195.55V194.858C264.279 194.736 264.181 194.637 264.059 194.637H262.61C262.488 194.637 262.39 194.736 262.39 194.858V195.55C262.39 195.672 262.488 195.771 262.61 195.771Z" fill="#3F3D56"/>
<path d="M258.83 195.771H260.28C260.401 195.771 260.5 195.672 260.5 195.55V194.858C260.5 194.736 260.401 194.637 260.28 194.637H258.83C258.709 194.637 258.61 194.736 258.61 194.858V195.55C258.61 195.672 258.709 195.771 258.83 195.771Z" fill="#3F3D56"/>
<path d="M255.051 195.771H256.5C256.622 195.771 256.72 195.672 256.72 195.55V194.858C256.72 194.736 256.622 194.637 256.5 194.637H255.051C254.929 194.637 254.83 194.736 254.83 194.858V195.55C254.83 195.672 254.929 195.771 255.051 195.771Z" fill="#3F3D56"/>
<path d="M251.271 195.771H252.721C252.842 195.771 252.941 195.672 252.941 195.55V194.858C252.941 194.736 252.842 194.637 252.721 194.637H251.271C251.15 194.637 251.051 194.736 251.051 194.858V195.55C251.051 195.672 251.15 195.771 251.271 195.771Z" fill="#3F3D56"/>
<path d="M247.492 195.771H248.941C249.063 195.771 249.161 195.672 249.161 195.55V194.858C249.161 194.736 249.063 194.637 248.941 194.637H247.492C247.37 194.637 247.271 194.736 247.271 194.858V195.55C247.271 195.672 247.37 195.771 247.492 195.771Z" fill="#3F3D56"/>
<path d="M243.712 195.771H245.162C245.283 195.771 245.382 195.672 245.382 195.55V194.858C245.382 194.736 245.283 194.637 245.162 194.637H243.712C243.591 194.637 243.492 194.736 243.492 194.858V195.55C243.492 195.672 243.591 195.771 243.712 195.771Z" fill="#3F3D56"/>
<path d="M239.933 195.771H241.382C241.503 195.771 241.602 195.672 241.602 195.55V194.858C241.602 194.736 241.503 194.637 241.382 194.637H239.933C239.811 194.637 239.712 194.736 239.712 194.858V195.55C239.712 195.672 239.811 195.771 239.933 195.771Z" fill="#3F3D56"/>
<path d="M236.153 195.771H237.602C237.724 195.771 237.823 195.672 237.823 195.55V194.858C237.823 194.736 237.724 194.637 237.602 194.637H236.153C236.032 194.637 235.933 194.736 235.933 194.858V195.55C235.933 195.672 236.032 195.771 236.153 195.771Z" fill="#3F3D56"/>
<path d="M232.373 195.771H233.823C233.944 195.771 234.043 195.672 234.043 195.55V194.858C234.043 194.736 233.944 194.637 233.823 194.637H232.373C232.252 194.637 232.153 194.736 232.153 194.858V195.55C232.153 195.672 232.252 195.771 232.373 195.771Z" fill="#3F3D56"/>
<path d="M228.594 195.771H230.043C230.165 195.771 230.264 195.672 230.264 195.55V194.858C230.264 194.736 230.165 194.637 230.043 194.637H228.594C228.473 194.637 228.374 194.736 228.374 194.858V195.55C228.374 195.672 228.473 195.771 228.594 195.771Z" fill="#3F3D56"/>
<path d="M224.814 195.771H226.264C226.385 195.771 226.484 195.672 226.484 195.55V194.858C226.484 194.736 226.385 194.637 226.264 194.637H224.814C224.693 194.637 224.594 194.736 224.594 194.858V195.55C224.594 195.672 224.693 195.771 224.814 195.771Z" fill="#3F3D56"/>
<path d="M281.552 197.659H283.001C283.123 197.659 283.222 197.561 283.222 197.439V196.746C283.222 196.625 283.123 196.526 283.001 196.526H281.552C281.431 196.526 281.332 196.625 281.332 196.746V197.439C281.332 197.561 281.431 197.659 281.552 197.659Z" fill="#3F3D56"/>
<path d="M277.772 197.659H279.222C279.343 197.659 279.442 197.561 279.442 197.439V196.746C279.442 196.625 279.343 196.526 279.222 196.526H277.772C277.651 196.526 277.552 196.625 277.552 196.746V197.439C277.552 197.561 277.651 197.659 277.772 197.659Z" fill="#3F3D56"/>
<path d="M273.993 197.659H275.442C275.564 197.659 275.663 197.561 275.663 197.439V196.746C275.663 196.625 275.564 196.526 275.442 196.526H273.993C273.871 196.526 273.773 196.625 273.773 196.746V197.439C273.773 197.561 273.871 197.659 273.993 197.659Z" fill="#3F3D56"/>
<path d="M270.214 197.659H271.663C271.785 197.659 271.883 197.561 271.883 197.439V196.746C271.883 196.625 271.785 196.526 271.663 196.526H270.214C270.092 196.526 269.994 196.625 269.994 196.746V197.439C269.994 197.561 270.092 197.659 270.214 197.659Z" fill="#3F3D56"/>
<path d="M266.434 197.659H267.883C268.005 197.659 268.104 197.561 268.104 197.439V196.746C268.104 196.625 268.005 196.526 267.883 196.526H266.434C266.312 196.526 266.214 196.625 266.214 196.746V197.439C266.214 197.561 266.312 197.659 266.434 197.659Z" fill="#3F3D56"/>
<path d="M262.655 197.659H264.104C264.226 197.659 264.324 197.561 264.324 197.439V196.746C264.324 196.625 264.226 196.526 264.104 196.526H262.655C262.533 196.526 262.434 196.625 262.434 196.746V197.439C262.434 197.561 262.533 197.659 262.655 197.659Z" fill="#3F3D56"/>
<path d="M258.875 197.659H260.324C260.446 197.659 260.544 197.561 260.544 197.439V196.746C260.544 196.625 260.446 196.526 260.324 196.526H258.875C258.753 196.526 258.655 196.625 258.655 196.746V197.439C258.655 197.561 258.753 197.659 258.875 197.659Z" fill="#3F3D56"/>
<path d="M255.096 197.659H256.545C256.667 197.659 256.765 197.561 256.765 197.439V196.746C256.765 196.625 256.667 196.526 256.545 196.526H255.096C254.974 196.526 254.875 196.625 254.875 196.746V197.439C254.875 197.561 254.974 197.659 255.096 197.659Z" fill="#3F3D56"/>
<path d="M251.316 197.659H252.765C252.887 197.659 252.985 197.561 252.985 197.439V196.746C252.985 196.625 252.887 196.526 252.765 196.526H251.316C251.194 196.526 251.096 196.625 251.096 196.746V197.439C251.096 197.561 251.194 197.659 251.316 197.659Z" fill="#3F3D56"/>
<path d="M247.537 197.659H248.986C249.107 197.659 249.206 197.561 249.206 197.439V196.746C249.206 196.625 249.107 196.526 248.986 196.526H247.537C247.415 196.526 247.316 196.625 247.316 196.746V197.439C247.316 197.561 247.415 197.659 247.537 197.659Z" fill="#3F3D56"/>
<path d="M243.757 197.659H245.206C245.328 197.659 245.426 197.561 245.426 197.439V196.746C245.426 196.625 245.328 196.526 245.206 196.526H243.757C243.635 196.526 243.536 196.625 243.536 196.746V197.439C243.536 197.561 243.635 197.659 243.757 197.659Z" fill="#3F3D56"/>
<path d="M239.977 197.659H241.427C241.548 197.659 241.647 197.561 241.647 197.439V196.746C241.647 196.625 241.548 196.526 241.427 196.526H239.977C239.856 196.526 239.757 196.625 239.757 196.746V197.439C239.757 197.561 239.856 197.659 239.977 197.659Z" fill="#3F3D56"/>
<path d="M236.198 197.659H237.647C237.769 197.659 237.867 197.561 237.867 197.439V196.746C237.867 196.625 237.769 196.526 237.647 196.526H236.198C236.076 196.526 235.977 196.625 235.977 196.746V197.439C235.977 197.561 236.076 197.659 236.198 197.659Z" fill="#3F3D56"/>
<path d="M232.418 197.659H233.867C233.989 197.659 234.087 197.561 234.087 197.439V196.746C234.087 196.625 233.989 196.526 233.867 196.526H232.418C232.296 196.526 232.198 196.625 232.198 196.746V197.439C232.198 197.561 232.296 197.659 232.418 197.659Z" fill="#3F3D56"/>
<path d="M228.639 197.659H230.088C230.21 197.659 230.308 197.561 230.308 197.439V196.746C230.308 196.625 230.21 196.526 230.088 196.526H228.639C228.517 196.526 228.418 196.625 228.418 196.746V197.439C228.418 197.561 228.517 197.659 228.639 197.659Z" fill="#3F3D56"/>
<path d="M224.859 197.659H226.308C226.43 197.659 226.528 197.561 226.528 197.439V196.746C226.528 196.625 226.43 196.526 226.308 196.526H224.859C224.737 196.526 224.639 196.625 224.639 196.746V197.439C224.639 197.561 224.737 197.659 224.859 197.659Z" fill="#3F3D56"/>
<path d="M250.182 199.925H264.86C264.981 199.925 265.08 199.826 265.08 199.705V199.012C265.08 198.89 264.981 198.792 264.86 198.792H250.182C250.06 198.792 249.962 198.89 249.962 199.012V199.705C249.962 199.826 250.06 199.925 250.182 199.925Z" fill="#3F3D56"/>
<path d="M234.631 161.735H233.348C232.959 161.735 232.644 162.05 232.644 162.439C232.644 162.828 232.959 163.143 233.348 163.143H234.631C235.02 163.143 235.336 162.828 235.336 162.439C235.336 162.05 235.02 161.735 234.631 161.735Z" fill="white"/>
<path d="M249.305 161.735H248.022C247.633 161.735 247.318 162.05 247.318 162.439C247.318 162.828 247.633 163.143 248.022 163.143H249.305C249.694 163.143 250.01 162.828 250.01 162.439C250.01 162.05 249.694 161.735 249.305 161.735Z" fill="white"/>
<path d="M253.462 161.735H252.179C251.79 161.735 251.475 162.05 251.475 162.439C251.475 162.828 251.79 163.143 252.179 163.143H253.462C253.851 163.143 254.167 162.828 254.167 162.439C254.167 162.05 253.851 161.735 253.462 161.735Z" fill="white"/>
<path d="M245.314 161.618H237.34C236.951 161.618 236.635 161.933 236.635 162.322C236.635 162.711 236.951 163.026 237.34 163.026H245.314C245.703 163.026 246.018 162.711 246.018 162.322C246.018 161.933 245.703 161.618 245.314 161.618Z" fill="white"/>
<path d="M264.879 161.618H256.905C256.516 161.618 256.201 161.933 256.201 162.322C256.201 162.711 256.516 163.026 256.905 163.026H264.879C265.268 163.026 265.584 162.711 265.584 162.322C265.584 161.933 265.268 161.618 264.879 161.618Z" fill="white"/>
<path d="M238.544 164.912H237.261C236.872 164.912 236.557 165.227 236.557 165.616C236.557 166.005 236.872 166.32 237.261 166.32H238.544C238.933 166.32 239.249 166.005 239.249 165.616C239.249 165.227 238.933 164.912 238.544 164.912Z" fill="white"/>
<path d="M253.218 164.912H251.935C251.546 164.912 251.231 165.227 251.231 165.616C251.231 166.005 251.546 166.32 251.935 166.32H253.218C253.607 166.32 253.923 166.005 253.923 165.616C253.923 165.227 253.607 164.912 253.218 164.912Z" fill="white"/>
<path d="M257.376 164.912H256.093C255.704 164.912 255.389 165.227 255.389 165.616C255.389 166.005 255.704 166.32 256.093 166.32H257.376C257.765 166.32 258.08 166.005 258.08 165.616C258.08 165.227 257.765 164.912 257.376 164.912Z" fill="white"/>
<path d="M249.227 164.795H241.253C240.864 164.795 240.548 165.11 240.548 165.499C240.548 165.887 240.864 166.203 241.253 166.203H249.227C249.616 166.203 249.931 165.887 249.931 165.499C249.931 165.11 249.616 164.795 249.227 164.795Z" fill="white"/>
<path d="M268.792 164.795H260.818C260.429 164.795 260.114 165.11 260.114 165.499C260.114 165.887 260.429 166.203 260.818 166.203H268.792C269.181 166.203 269.497 165.887 269.497 165.499C269.497 165.11 269.181 164.795 268.792 164.795Z" fill="white"/>
<path d="M242.458 168.089H241.175C240.786 168.089 240.47 168.404 240.47 168.793C240.47 169.181 240.786 169.496 241.175 169.496H242.458C242.847 169.496 243.162 169.181 243.162 168.793C243.162 168.404 242.847 168.089 242.458 168.089Z" fill="white"/>
<path d="M257.131 168.089H255.848C255.459 168.089 255.144 168.404 255.144 168.793C255.144 169.181 255.459 169.496 255.848 169.496H257.131C257.52 169.496 257.836 169.181 257.836 168.793C257.836 168.404 257.52 168.089 257.131 168.089Z" fill="white"/>
<path d="M261.289 168.089H260.006C259.617 168.089 259.302 168.404 259.302 168.793C259.302 169.181 259.617 169.496 260.006 169.496H261.289C261.678 169.496 261.993 169.181 261.993 168.793C261.993 168.404 261.678 168.089 261.289 168.089Z" fill="white"/>
<path d="M253.14 167.972H245.166C244.777 167.972 244.461 168.287 244.461 168.675C244.461 169.064 244.777 169.379 245.166 169.379H253.14C253.529 169.379 253.844 169.064 253.844 168.675C253.844 168.287 253.529 167.972 253.14 167.972Z" fill="white"/>
<path d="M272.705 167.972H264.731C264.342 167.972 264.027 168.287 264.027 168.675C264.027 169.064 264.342 169.379 264.731 169.379H272.705C273.094 169.379 273.41 169.064 273.41 168.675C273.41 168.287 273.094 167.972 272.705 167.972Z" fill="white"/>
<path d="M246.371 171.266H245.088C244.699 171.266 244.383 171.581 244.383 171.969C244.383 172.358 244.699 172.673 245.088 172.673H246.371C246.76 172.673 247.075 172.358 247.075 171.969C247.075 171.581 246.76 171.266 246.371 171.266Z" fill="white"/>
<path d="M261.044 171.266H259.761C259.372 171.266 259.057 171.581 259.057 171.969C259.057 172.358 259.372 172.673 259.761 172.673H261.044C261.433 172.673 261.749 172.358 261.749 171.969C261.749 171.581 261.433 171.266 261.044 171.266Z" fill="white"/>
<path d="M265.202 171.266H263.919C263.53 171.266 263.215 171.581 263.215 171.969C263.215 172.358 263.53 172.673 263.919 172.673H265.202C265.591 172.673 265.907 172.358 265.907 171.969C265.907 171.581 265.591 171.266 265.202 171.266Z" fill="white"/>
<path d="M257.053 171.148H249.079C248.69 171.148 248.375 171.464 248.375 171.852C248.375 172.241 248.69 172.556 249.079 172.556H257.053C257.442 172.556 257.757 172.241 257.757 171.852C257.757 171.464 257.442 171.148 257.053 171.148Z" fill="white"/>
<path d="M249.305 183.899H248.022C247.633 183.899 247.318 184.215 247.318 184.603C247.318 184.992 247.633 185.307 248.022 185.307H249.305C249.694 185.307 250.01 184.992 250.01 184.603C250.01 184.215 249.694 183.899 249.305 183.899Z" fill="white"/>
<path d="M253.462 183.899H252.179C251.79 183.899 251.475 184.215 251.475 184.603C251.475 184.992 251.79 185.307 252.179 185.307H253.462C253.851 185.307 254.167 184.992 254.167 184.603C254.167 184.215 253.851 183.899 253.462 183.899Z" fill="white"/>
<path d="M264.879 184.016H256.905C256.516 184.016 256.201 184.331 256.201 184.719C256.201 185.108 256.516 185.423 256.905 185.423H264.879C265.268 185.423 265.584 185.108 265.584 184.719C265.584 184.331 265.268 184.016 264.879 184.016Z" fill="white"/>
<path d="M234.631 183.899H233.348C232.959 183.899 232.644 184.215 232.644 184.603C232.644 184.992 232.959 185.307 233.348 185.307H234.631C235.02 185.307 235.336 184.992 235.336 184.603C235.336 184.215 235.02 183.899 234.631 183.899Z" fill="white"/>
<path d="M245.314 184.016H237.34C236.951 184.016 236.635 184.331 236.635 184.719C236.635 185.108 236.951 185.423 237.34 185.423H245.314C245.703 185.423 246.018 185.108 246.018 184.719C246.018 184.331 245.703 184.016 245.314 184.016Z" fill="white"/>
<path d="M238.544 180.722H237.261C236.872 180.722 236.557 181.037 236.557 181.425C236.557 181.814 236.872 182.129 237.261 182.129H238.544C238.933 182.129 239.249 181.814 239.249 181.425C239.249 181.037 238.933 180.722 238.544 180.722Z" fill="white"/>
<path d="M253.218 180.722H251.935C251.546 180.722 251.231 181.037 251.231 181.425C251.231 181.814 251.546 182.129 251.935 182.129H253.218C253.607 182.129 253.923 181.814 253.923 181.425C253.923 181.037 253.607 180.722 253.218 180.722Z" fill="white"/>
<path d="M257.376 180.722H256.093C255.704 180.722 255.389 181.037 255.389 181.425C255.389 181.814 255.704 182.129 256.093 182.129H257.376C257.765 182.129 258.08 181.814 258.08 181.425C258.08 181.037 257.765 180.722 257.376 180.722Z" fill="white"/>
<path d="M249.227 180.839H241.253C240.864 180.839 240.548 181.154 240.548 181.543C240.548 181.931 240.864 182.246 241.253 182.246H249.227C249.616 182.246 249.931 181.931 249.931 181.543C249.931 181.154 249.616 180.839 249.227 180.839Z" fill="white"/>
<path d="M242.458 177.545H241.175C240.786 177.545 240.47 177.86 240.47 178.249C240.47 178.637 240.786 178.953 241.175 178.953H242.458C242.847 178.953 243.162 178.637 243.162 178.249C243.162 177.86 242.847 177.545 242.458 177.545Z" fill="white"/>
<path d="M257.131 177.545H255.848C255.459 177.545 255.144 177.86 255.144 178.249C255.144 178.637 255.459 178.953 255.848 178.953H257.131C257.52 178.953 257.836 178.637 257.836 178.249C257.836 177.86 257.52 177.545 257.131 177.545Z" fill="white"/>
<path d="M261.289 177.545H260.006C259.617 177.545 259.302 177.86 259.302 178.249C259.302 178.637 259.617 178.953 260.006 178.953H261.289C261.678 178.953 261.993 178.637 261.993 178.249C261.993 177.86 261.678 177.545 261.289 177.545Z" fill="white"/>
<path d="M253.14 177.662H245.166C244.777 177.662 244.461 177.977 244.461 178.366C244.461 178.755 244.777 179.07 245.166 179.07H253.14C253.529 179.07 253.844 178.755 253.844 178.366C253.844 177.977 253.529 177.662 253.14 177.662Z" fill="white"/>
<path d="M246.371 174.368H245.088C244.699 174.368 244.383 174.683 244.383 175.072C244.383 175.461 244.699 175.776 245.088 175.776H246.371C246.76 175.776 247.075 175.461 247.075 175.072C247.075 174.683 246.76 174.368 246.371 174.368Z" fill="white"/>
<path d="M261.044 174.368H259.761C259.372 174.368 259.057 174.683 259.057 175.072C259.057 175.461 259.372 175.776 259.761 175.776H261.044C261.433 175.776 261.749 175.461 261.749 175.072C261.749 174.683 261.433 174.368 261.044 174.368Z" fill="white"/>
<path d="M265.202 174.368H263.919C263.53 174.368 263.215 174.683 263.215 175.072C263.215 175.461 263.53 175.776 263.919 175.776H265.202C265.591 175.776 265.907 175.461 265.907 175.072C265.907 174.683 265.591 174.368 265.202 174.368Z" fill="white"/>
<path d="M257.053 174.485H249.079C248.69 174.485 248.375 174.8 248.375 175.189C248.375 175.578 248.69 175.893 249.079 175.893H257.053C257.442 175.893 257.757 175.578 257.757 175.189C257.757 174.8 257.442 174.485 257.053 174.485Z" fill="white"/>
<path d="M227.81 221.132L221.787 211.618L240.693 196.558L248.496 187.92C249.51 186.797 250.801 185.961 252.239 185.493C253.678 185.025 255.215 184.943 256.695 185.255C258.176 185.566 259.549 186.261 260.676 187.269C261.804 188.277 262.648 189.563 263.122 190.998C263.826 193.125 263.675 195.443 262.701 197.461C261.727 199.479 260.006 201.04 257.902 201.814L245.563 206.357L227.81 221.132Z" fill="#FFB6B6"/>
<path d="M86.4873 152.152V198.391H118.905V152.152C118.905 151.819 118.799 151.495 118.602 151.227C118.404 150.96 118.126 150.762 117.808 150.664C117.659 150.615 117.502 150.59 117.344 150.592H88.0529C87.8476 150.591 87.6442 150.632 87.4543 150.71C87.2645 150.788 87.092 150.903 86.9466 151.048C86.8012 151.192 86.6858 151.365 86.607 151.554C86.5282 151.743 86.4875 151.947 86.4873 152.152ZM99.1385 168.04C99.1469 167.128 99.5153 166.257 100.163 165.615C100.811 164.973 101.687 164.614 102.599 164.614C103.511 164.614 104.387 164.973 105.035 165.615C105.683 166.257 106.051 167.128 106.06 168.04V173.405C106.055 174.319 105.688 175.194 105.04 175.838C104.391 176.483 103.514 176.845 102.599 176.845C101.684 176.845 100.807 176.483 100.158 175.838C99.5098 175.194 99.1432 174.319 99.1385 173.405V168.04Z" fill="#2F2E41"/>
<path d="M86.3882 196.912V201.371C86.3889 201.602 86.4807 201.823 86.6438 201.987C86.8068 202.151 87.0278 202.244 87.259 202.246H118.133C118.365 202.244 118.586 202.152 118.749 201.988C118.913 201.824 119.004 201.602 119.004 201.371V196.912H86.3882Z" fill="#3F3D56"/>
<path d="M35.4902 82.4872V166.913C35.4911 167.988 35.9192 169.02 36.6805 169.781C37.4418 170.542 38.4742 170.969 39.5509 170.97H164.754C165.831 170.969 166.863 170.542 167.625 169.781C168.386 169.02 168.814 167.988 168.815 166.913V82.4872C168.812 81.4122 168.384 80.3821 167.622 79.6224C166.861 78.8628 165.83 78.4354 164.754 78.4341H39.5509C38.4751 78.4355 37.4438 78.8628 36.6827 79.6225C35.9216 80.3821 35.4928 81.4122 35.4902 82.4872Z" fill="#3F3D56"/>
<path d="M38.4272 83.5378V165.871C38.4282 166.446 38.6572 166.997 39.064 167.404C39.4707 167.81 40.0222 168.039 40.5974 168.04H163.712C164.287 168.039 164.838 167.81 165.245 167.404C165.652 166.997 165.881 166.446 165.882 165.871V83.5378C165.882 82.9623 165.653 82.4103 165.247 82.0029C164.84 81.5955 164.288 81.366 163.712 81.3647H40.5974C40.0215 81.366 39.4695 81.5955 39.0627 82.0029C38.6558 82.4103 38.4273 82.9623 38.4272 83.5378Z" fill="white"/>
<path d="M61.2752 201.943C61.4005 202.1 61.5598 202.227 61.7411 202.314C61.9224 202.4 62.121 202.445 62.3219 202.444H135.567C135.767 202.443 135.965 202.399 136.146 202.312C136.327 202.226 136.486 202.101 136.612 201.945C136.738 201.79 136.828 201.608 136.875 201.414C136.922 201.219 136.926 201.017 136.885 200.821L135.748 195.424C135.7 195.204 135.599 194.999 135.452 194.828C135.306 194.657 135.119 194.526 134.908 194.446C134.756 194.386 134.594 194.355 134.43 194.355H63.4544C63.2908 194.355 63.1285 194.386 62.9762 194.446C62.7657 194.526 62.5787 194.657 62.4321 194.828C62.2855 194.999 62.1841 195.204 62.137 195.424L61 200.821C60.9595 201.016 60.9632 201.219 61.0108 201.413C61.0585 201.607 61.1488 201.788 61.2752 201.943Z" fill="#2F2E41"/>
<path d="M159.717 92.7066H44.5188C44.3991 92.7039 44.2852 92.6545 44.2014 92.5689C44.1177 92.4834 44.0708 92.3685 44.0708 92.2488C44.0708 92.1291 44.1177 92.0142 44.2014 91.9286C44.2852 91.8431 44.3991 91.7937 44.5188 91.791H159.717C159.836 91.7937 159.95 91.8431 160.034 91.9286C160.118 92.0142 160.165 92.1291 160.165 92.2488C160.165 92.3685 160.118 92.4834 160.034 92.5689C159.95 92.6545 159.836 92.7039 159.717 92.7066Z" fill="#3F3D56"/>
<path d="M52.3605 89.4533C53.8433 89.4533 55.0453 88.2254 55.0453 86.7108C55.0453 85.1961 53.8433 83.9683 52.3605 83.9683C50.8778 83.9683 49.6758 85.1961 49.6758 86.7108C49.6758 88.2254 50.8778 89.4533 52.3605 89.4533Z" fill="#3F3D56"/>
<path d="M61.6349 89.4533C63.1177 89.4533 64.3197 88.2254 64.3197 86.7108C64.3197 85.1961 63.1177 83.9683 61.6349 83.9683C60.1522 83.9683 58.9502 85.1961 58.9502 86.7108C58.9502 88.2254 60.1522 89.4533 61.6349 89.4533Z" fill="#3F3D56"/>
<path d="M70.9093 89.4533C72.3921 89.4533 73.5941 88.2254 73.5941 86.7108C73.5941 85.1961 72.3921 83.9683 70.9093 83.9683C69.4266 83.9683 68.2246 85.1961 68.2246 86.7108C68.2246 88.2254 69.4266 89.4533 70.9093 89.4533Z" fill="#3F3D56"/>
<path d="M154.131 84.6465H147.544C147.414 84.6495 147.29 84.7033 147.199 84.7964C147.108 84.8895 147.057 85.0145 147.057 85.1447C147.057 85.2748 147.108 85.3998 147.199 85.4929C147.29 85.586 147.414 85.6398 147.544 85.6428H154.131C154.263 85.641 154.388 85.5877 154.48 85.4945C154.572 85.4012 154.623 85.2756 154.623 85.1447C154.623 85.0137 154.572 84.8881 154.48 84.7949C154.388 84.7016 154.263 84.6483 154.131 84.6465Z" fill="#3F3D56"/>
<path d="M154.132 86.5176H147.544C147.414 86.5205 147.29 86.5742 147.199 86.6673C147.108 86.7604 147.057 86.8855 147.057 87.0158C147.057 87.146 147.108 87.2711 147.199 87.3642C147.29 87.4573 147.414 87.5111 147.544 87.5139H154.132C154.263 87.5124 154.388 87.4592 154.48 87.3659C154.572 87.2727 154.624 87.1469 154.624 87.0158C154.624 86.8847 154.572 86.7589 154.48 86.6656C154.388 86.5723 154.263 86.5192 154.132 86.5176Z" fill="#3F3D56"/>
<path d="M154.131 88.3887H147.544C147.414 88.3917 147.29 88.4455 147.199 88.5386C147.108 88.6317 147.057 88.7567 147.057 88.8869C147.057 89.017 147.108 89.142 147.199 89.2351C147.29 89.3282 147.414 89.382 147.544 89.385H154.131C154.263 89.3832 154.388 89.3299 154.48 89.2367C154.572 89.1434 154.623 89.0178 154.623 88.8869C154.623 88.7559 154.572 88.6303 154.48 88.537C154.388 88.4438 154.263 88.3905 154.131 88.3887Z" fill="#3F3D56"/>
<path d="M312.939 198.869C313.138 199.447 313.515 199.948 314.016 200.298C314.517 200.649 315.117 200.832 315.729 200.821L327.681 200.514C328.298 200.502 328.893 200.291 329.38 199.913C329.866 199.534 330.217 199.009 330.38 198.414L332.071 180.341C332.671 180.613 333.324 180.747 333.983 180.734C334.555 180.72 335.119 180.593 335.642 180.361C336.166 180.129 336.638 179.796 337.032 179.381C337.427 178.967 337.736 178.479 337.942 177.945C338.147 177.411 338.246 176.842 338.231 176.27C338.217 175.698 338.09 175.135 337.858 174.612C337.626 174.089 337.293 173.617 336.878 173.223C336.463 172.829 335.974 172.52 335.44 172.315C334.906 172.109 334.337 172.011 333.764 172.025C333.501 172.024 333.238 172.052 332.981 172.106C332.701 171.804 332.361 171.563 331.982 171.4C331.603 171.236 331.194 171.154 330.782 171.158L312.396 171.633C312.244 171.638 312.092 171.657 311.943 171.689C311.539 171.764 311.157 171.925 310.821 172.16C310.485 172.395 310.204 172.699 309.995 173.052C309.787 173.405 309.657 173.799 309.613 174.207C309.57 174.614 309.614 175.026 309.744 175.415L312.939 198.869ZM332.418 179.114L333.622 174.807C333.758 174.31 333.762 173.785 333.631 173.286C333.689 173.286 333.741 173.258 333.799 173.258C334.624 173.241 335.423 173.552 336.019 174.122C336.615 174.692 336.961 175.475 336.981 176.3C337 177.125 336.691 177.923 336.122 178.521C335.553 179.118 334.77 179.466 333.945 179.487C333.411 179.504 332.884 179.375 332.418 179.114Z" fill="#2F2E41"/>
<path d="M311.942 171.689C312.334 173.927 316.738 175.5 322.033 175.227C326.903 175.002 330.885 173.294 331.614 171.269C331.344 171.189 331.063 171.152 330.782 171.158L312.396 171.632C312.243 171.638 312.092 171.657 311.942 171.689Z" fill="#3F3D56"/>
<path d="M323.004 188.937C323.028 188.931 323.051 188.921 323.072 188.907L325.668 187.21C325.699 187.189 325.725 187.161 325.743 187.128C325.761 187.095 325.77 187.058 325.77 187.021C325.77 186.984 325.761 186.947 325.743 186.914C325.725 186.881 325.699 186.853 325.668 186.833L322.97 185.067C322.945 185.05 322.917 185.039 322.888 185.033C322.859 185.028 322.829 185.028 322.8 185.034C322.771 185.04 322.743 185.052 322.719 185.068C322.694 185.085 322.673 185.106 322.657 185.131C322.641 185.156 322.63 185.184 322.624 185.213C322.619 185.242 322.619 185.272 322.625 185.301C322.631 185.33 322.643 185.358 322.66 185.382C322.676 185.406 322.698 185.427 322.723 185.444L325.133 187.021L322.825 188.53C322.78 188.559 322.748 188.603 322.732 188.654C322.717 188.706 322.721 188.76 322.742 188.809C322.764 188.858 322.802 188.898 322.85 188.921C322.898 188.945 322.952 188.95 323.004 188.937H323.004Z" fill="#2F5D62"/>
<path d="M318.904 189.126C318.948 189.115 318.987 189.091 319.017 189.058C319.047 189.024 319.066 188.983 319.072 188.938C319.078 188.894 319.071 188.848 319.051 188.808C319.031 188.768 319 188.734 318.961 188.712L316.568 187.341L318.881 185.625C318.905 185.607 318.925 185.585 318.94 185.56C318.955 185.534 318.965 185.506 318.97 185.477C318.974 185.448 318.972 185.418 318.965 185.389C318.958 185.36 318.945 185.333 318.927 185.31C318.91 185.286 318.888 185.266 318.862 185.251C318.837 185.236 318.809 185.225 318.779 185.221C318.75 185.217 318.72 185.218 318.692 185.226C318.663 185.233 318.636 185.246 318.612 185.263L316.023 187.185C315.993 187.207 315.969 187.237 315.953 187.271C315.937 187.305 315.93 187.342 315.932 187.379C315.934 187.417 315.946 187.453 315.965 187.485C315.985 187.516 316.013 187.543 316.045 187.561L318.736 189.103C318.787 189.132 318.847 189.141 318.904 189.126Z" fill="#2F5D62"/>
<path d="M322.746 190.425C322.767 190.42 322.788 190.411 322.807 190.399C322.833 190.384 322.855 190.364 322.872 190.34C322.89 190.316 322.902 190.289 322.909 190.26C322.916 190.231 322.918 190.201 322.913 190.172C322.909 190.143 322.898 190.115 322.883 190.089L319.203 184.044C319.172 183.993 319.122 183.957 319.064 183.943C319.006 183.929 318.944 183.938 318.893 183.969C318.842 184.001 318.806 184.051 318.792 184.109C318.777 184.167 318.787 184.228 318.818 184.279L322.497 190.324C322.523 190.365 322.56 190.397 322.605 190.416C322.65 190.434 322.699 190.437 322.746 190.425Z" fill="#2F5D62"/>
<path d="M115.882 117.593H95.9434C95.1301 117.593 94.4707 118.252 94.4707 119.064V121.011C94.4707 121.824 95.1301 122.483 95.9434 122.483H115.882C116.695 122.483 117.354 121.824 117.354 121.011V119.064C117.354 118.252 116.695 117.593 115.882 117.593Z" fill="#2F5D62"/>
<path d="M127.504 127.372H84.3219C83.5085 127.372 82.8491 128.031 82.8491 128.844V130.79C82.8491 131.603 83.5085 132.262 84.3219 132.262H127.504C128.317 132.262 128.976 131.603 128.976 130.79V128.844C128.976 128.031 128.317 127.372 127.504 127.372Z" fill="#E6E6E6"/>
<path d="M127.504 137.152H84.3219C83.5085 137.152 82.8491 137.811 82.8491 138.623V140.57C82.8491 141.383 83.5085 142.042 84.3219 142.042H127.504C128.317 142.042 128.976 141.383 128.976 140.57V138.623C128.976 137.811 128.317 137.152 127.504 137.152Z" fill="#E6E6E6"/>
<path d="M131.164 169.899L131.262 170.208L131.267 170.218L134.211 179.162L137.598 189.469L143.97 208.838L144.031 211.847V211.857L144.505 236.06L143.192 239.342L144.67 244.721C144.67 244.721 143.99 236.589 140.346 241.259C138.282 243.913 135.868 246.629 133.887 249.175C136.774 250.342 139.708 251.398 142.688 252.343C143.331 252.548 143.98 252.744 144.628 252.939C144.767 252.98 144.906 253.022 145.045 253.063C154.924 255.982 165.137 257.622 175.433 257.944C175.968 257.959 176.493 257.969 177.003 257.98C177.183 257.985 177.358 257.99 177.533 257.99C178.109 257.995 178.681 258 179.257 258C180.42 258 181.578 257.983 182.731 257.949C191.265 257.708 199.748 256.562 208.039 254.528C207.982 251.108 207.828 247.112 207.607 242.843C207.504 240.75 205.193 238.482 205.054 236.291C204.956 234.645 207.03 233.097 206.922 231.426C206.222 221.134 205.347 225.085 204.699 217.797C204.632 217.082 204.57 216.398 204.513 215.745C204.096 211.065 203.808 208.138 203.808 208.138L206.577 190.698L210.926 163.316L210.592 162.766L210.216 162.581L187.276 151.235L186.031 148.046C185.668 147.128 185.038 146.339 184.223 145.78C183.407 145.222 182.443 144.921 181.455 144.914L166.343 144.853C165.559 144.849 164.785 145.032 164.086 145.388C163.387 145.743 162.783 146.259 162.324 146.894L158.232 152.557L131.164 169.899Z" fill="#3F3D56"/>
<path d="M147.454 204.528L144.032 211.846L141.695 216.845L137.675 237.875L135.663 240.01L133.938 232.454L115.892 236.458C115.3 233.171 115.734 236.569 115.368 232.964C115.471 232.861 115.579 232.758 115.687 232.655C115.975 232.388 116.217 232.136 116.212 231.894C116.006 219.458 116.624 198.294 121.781 185.472C122.589 183.379 123.654 181.394 124.952 179.563C125.055 179.424 125.153 179.285 125.25 179.146C127.628 175.819 129.131 172.543 131.262 170.213V170.208C131.275 170.197 131.287 170.185 131.298 170.172C131.306 170.168 131.313 170.163 131.319 170.156L145.956 162.4L146.584 180.031L147.032 192.704L147.454 204.528Z" fill="#3F3D56"/>
<path d="M200.236 206.606L204.511 215.747L206.003 218.93L210.022 239.959L212.028 242.088L213.756 234.534L214.568 234.367L229.213 231.337L233.481 244.883C234.443 243.281 234.822 241.396 234.554 239.548C234.286 237.699 233.387 235.999 232.01 234.736C231.718 234.473 231.476 234.216 231.482 233.973C231.725 219.347 230.83 192.638 222.744 181.646C220.176 178.157 218.635 174.682 216.394 172.255C216.387 172.248 216.387 172.241 216.38 172.241L210.924 163.315L210.591 162.767L210.216 162.58L200.236 206.606Z" fill="#3F3D56"/>
<path d="M174.335 140.555C185.439 140.555 194.439 131.561 194.439 120.466C194.439 109.372 185.439 100.377 174.335 100.377C163.232 100.377 154.231 109.372 154.231 120.466C154.231 131.561 163.232 140.555 174.335 140.555Z" fill="#FFB6B6"/>
<path d="M201.509 106.435C201.353 106.268 201.165 106.135 200.956 106.043C200.748 105.951 200.523 105.901 200.295 105.898L200.597 105.059C200.696 104.795 200.722 104.51 200.674 104.232C200.626 103.954 200.505 103.694 200.323 103.478C200.141 103.263 199.905 103.099 199.64 103.005C199.374 102.91 199.088 102.888 198.81 102.94L197.71 103.152L197.813 102.417C197.853 102.144 197.821 101.864 197.72 101.607C197.619 101.349 197.453 101.123 197.237 100.949C197.022 100.775 196.765 100.66 196.492 100.616C196.219 100.571 195.939 100.599 195.679 100.695C195.443 100.788 195.189 100.827 194.937 100.809C194.684 100.791 194.438 100.717 194.217 100.592C193.996 100.47 193.804 100.302 193.654 100.099C193.505 99.8955 193.401 99.6621 193.351 99.4148L192.968 97.5664L192.927 97.4672C191.059 94.3563 187.468 92.0931 183.073 91.2635C179.161 90.5196 175.15 90.8983 171.284 91.2545C169.75 91.3988 168.017 91.5611 166.573 92.4447C165.346 93.2022 164.308 94.717 164.521 96.2454C160.708 95.0777 156.62 97.4085 154.595 100.348C152.194 103.847 151.802 108.229 151.739 111.655C151.567 119.761 153.241 126.393 156.702 131.371C156.954 131.731 157.017 132.484 157.518 132.737L157.414 132.57C157.974 132.85 158.542 133.3 158.33 133.783C157.721 135.171 161.768 138.242 164.62 139.256C169.822 141.109 176.739 140.951 181.602 140.284L181.774 139.134C183.529 138.895 184.765 138.44 185.113 137.728C185.726 137.205 186.25 136.736 186.705 136.303L186.71 136.299C186.719 136.289 186.737 136.276 186.746 136.267C188.943 134.161 189.453 132.962 189.683 131.136C189.904 129.346 189.512 127.53 189.11 125.893C197.565 127.2 185.78 116.894 193.658 114.901C193.748 114.874 193.84 114.851 193.933 114.834C194.163 114.78 194.393 114.726 194.614 114.662C195.68 114.373 196.701 113.938 197.646 113.369C199.848 112.03 200.575 110.253 201.712 108.251C201.876 107.966 201.944 107.637 201.908 107.31C201.871 106.983 201.731 106.676 201.509 106.435Z" fill="#2F2E41"/>
<path d="M245.44 208.037C245.436 208.826 245.427 209.93 245.391 211.297C245.386 211.486 245.382 211.68 245.377 211.878C245.318 214.389 245.26 216.495 245.165 218.835C245.161 218.997 245.156 219.155 245.147 219.317C245.021 222.581 244.822 226.382 244.479 232.401C243.843 243.518 242.733 233.929 241.619 237.829C241.565 238.023 241.506 238.253 241.452 238.523C241.283 239.505 240.998 240.463 240.604 241.377C240.012 241.729 239.403 242.067 238.803 242.405C237.093 243.356 235.356 244.271 233.606 245.142C232.622 245.628 231.634 246.106 230.641 246.566C230.484 246.638 230.33 246.71 230.177 246.778C225.094 249.127 219.855 251.125 214.498 252.756C213.451 253.072 212.409 253.378 211.353 253.662C210.252 253.969 209.152 254.258 208.037 254.528C199.747 256.562 191.263 257.709 182.73 257.95C181.58 257.986 180.42 258 179.256 258C178.679 258 178.11 257.995 177.533 257.991C177.357 257.991 177.181 257.986 177.005 257.982C176.495 257.968 175.967 257.959 175.435 257.946C165.138 257.625 154.926 255.984 145.047 253.063L144.628 252.941C143.978 252.743 143.333 252.549 142.688 252.342C139.71 251.399 136.776 250.344 133.885 249.177C131.679 248.288 129.498 247.336 127.343 246.318C127.323 246.313 127.305 246.304 127.289 246.291C126.838 246.084 126.382 245.867 125.931 245.646C125.872 245.615 125.809 245.583 125.746 245.552C124.063 244.731 122.398 243.872 120.751 242.973C119.366 239.794 117.417 239.186 116.208 236.391C115.856 235.56 115.602 234.692 115.45 233.803C115.45 233.794 115.445 233.785 115.445 233.771C115.572 235.448 114.908 230.796 115.441 233.753C115.436 233.699 115.432 233.64 115.427 233.573C115.414 233.41 115.396 233.212 115.369 232.964C113.821 217.865 113.92 200.598 113.248 186.369C113.203 185.45 113.156 184.569 113.108 183.727C113.095 183.448 113.077 183.173 113.059 182.902C113.09 182.821 113.126 182.735 113.167 182.654C113.176 182.631 113.186 182.608 113.198 182.587C113.212 182.559 113.227 182.532 113.244 182.506C113.253 182.492 113.266 182.474 113.275 182.46C113.282 182.445 113.289 182.43 113.298 182.415C113.338 182.352 113.383 182.285 113.433 182.222C113.456 182.194 113.474 182.172 113.496 182.149C113.512 182.126 113.53 182.105 113.55 182.086C113.564 182.065 113.581 182.045 113.6 182.028C113.618 182.01 113.636 181.987 113.659 181.965C113.668 181.95 113.681 181.938 113.695 181.928C113.73 181.887 113.77 181.85 113.812 181.816C113.973 181.668 114.145 181.532 114.326 181.41C114.39 181.369 114.457 181.329 114.52 181.284C114.975 181.012 115.454 180.783 115.951 180.598C116.122 180.535 116.294 180.477 116.479 180.414C116.546 180.396 116.609 180.373 116.677 180.351C116.776 180.319 116.876 180.287 116.979 180.265C117.494 180.112 118.049 179.981 118.649 179.859C118.721 179.846 118.798 179.832 118.874 179.814C118.983 179.791 119.095 179.773 119.208 179.755C119.362 179.728 119.52 179.701 119.677 179.674C121.017 179.462 122.538 179.305 124.216 179.201C124.374 179.192 124.532 179.183 124.69 179.174C124.875 179.165 125.06 179.156 125.25 179.147C125.407 179.138 125.57 179.133 125.732 179.129C125.89 179.12 126.053 179.115 126.22 179.111C126.675 179.097 127.145 179.084 127.623 179.075C128.985 179.048 130.42 179.057 131.927 179.088C132.626 179.106 133.339 179.124 134.07 179.156C134.12 179.156 134.165 179.16 134.21 179.16C134.846 179.183 135.487 179.21 136.146 179.246C136.606 179.268 137.071 179.291 137.535 179.318C137.973 179.345 138.415 179.372 138.862 179.404C139.209 179.422 139.557 179.449 139.908 179.471C140.206 179.494 140.504 179.516 140.802 179.534L141.208 179.562C141.429 179.58 141.65 179.593 141.876 179.616C142.372 179.656 142.868 179.697 143.374 179.737C143.874 179.782 144.384 179.828 144.894 179.873C145.404 179.918 145.918 179.967 146.433 180.017C146.487 180.021 146.536 180.026 146.586 180.03C147.055 180.08 147.524 180.125 147.998 180.175C148.106 180.184 148.219 180.193 148.328 180.206C148.779 180.252 149.24 180.305 149.696 180.353C149.835 180.368 149.975 180.383 150.115 180.398C150.472 180.437 150.824 180.471 151.184 180.513C151.657 180.567 152.14 180.616 152.609 180.68C152.975 180.72 153.34 180.761 153.706 180.806C154.279 180.873 154.861 180.946 155.443 181.022C155.664 181.049 155.885 181.076 156.106 181.108C157.766 181.315 159.445 181.545 161.15 181.784C163.735 182.149 166.361 182.546 169.005 182.974C171.654 183.403 174.317 183.855 176.996 184.331C177.672 184.453 178.349 184.575 179.031 184.701C179.337 184.76 179.644 184.818 179.951 184.877C180.474 184.972 180.998 185.071 181.521 185.17C182.044 185.269 182.568 185.368 183.091 185.472C183.714 185.594 184.341 185.716 184.964 185.837C189.065 186.649 193.144 187.514 197.123 188.421C197.777 188.569 198.431 188.723 199.081 188.871C200.381 189.174 201.668 189.48 202.943 189.791C203.295 189.872 203.643 189.958 203.99 190.044C204.856 190.26 205.723 190.476 206.575 190.697L206.724 190.738C207.351 190.891 207.965 191.049 208.579 191.211C210.027 191.59 211.451 191.973 212.851 192.361C213.781 192.618 214.7 192.878 215.608 193.141C216.966 193.533 218.297 193.93 219.592 194.331C219.912 194.43 220.233 194.53 220.548 194.624C221.496 194.917 222.43 195.215 223.337 195.512C224.059 195.747 224.762 195.986 225.457 196.225C226.152 196.464 226.833 196.703 227.501 196.942C227.93 197.095 228.354 197.257 228.778 197.41C229.387 197.636 229.987 197.861 230.574 198.087C230.754 198.154 230.93 198.227 231.106 198.294C231.219 198.344 231.327 198.384 231.435 198.429C231.648 198.515 231.864 198.596 232.072 198.682C232.284 198.763 232.491 198.849 232.699 198.939C232.902 199.02 233.109 199.106 233.308 199.191C233.511 199.272 233.709 199.358 233.908 199.448C234.075 199.516 234.237 199.588 234.395 199.66C234.716 199.8 235.036 199.94 235.347 200.084C235.501 200.156 235.654 200.224 235.807 200.296L236.159 200.458C236.209 200.485 236.259 200.508 236.308 200.53C236.421 200.584 236.538 200.643 236.651 200.697C236.913 200.819 237.17 200.95 237.423 201.071C237.761 201.243 238.09 201.414 238.406 201.581C238.727 201.752 239.038 201.923 239.336 202.09C239.385 202.117 239.43 202.144 239.48 202.171C239.548 202.207 239.615 202.248 239.683 202.284C239.913 202.415 240.134 202.55 240.355 202.681C240.788 202.947 241.199 203.208 241.583 203.47C241.668 203.528 241.749 203.587 241.835 203.641C242.119 203.844 242.39 204.042 242.643 204.245C242.643 204.25 242.643 204.25 242.647 204.25C242.733 204.313 242.814 204.381 242.896 204.444C242.963 204.507 243.035 204.561 243.103 204.624C243.338 204.827 243.554 205.021 243.753 205.219C243.819 205.28 243.883 205.345 243.942 205.413C243.969 205.435 243.993 205.459 244.014 205.485C244.105 205.575 244.186 205.665 244.263 205.756C244.274 205.768 244.285 205.782 244.294 205.796C244.402 205.922 244.502 206.049 244.596 206.175C244.642 206.238 244.691 206.301 244.732 206.364C244.786 206.441 244.84 206.522 244.885 206.599C244.926 206.662 244.962 206.729 244.998 206.793C245.094 206.955 245.175 207.126 245.242 207.302C245.292 207.422 245.333 207.545 245.363 207.672C245.398 207.791 245.423 207.914 245.44 208.037Z" fill="#2F2E41"/>
<path opacity="0.2" d="M245.44 208.036C245.435 208.825 245.426 209.93 245.39 211.296C245.386 211.485 245.377 211.679 245.372 211.878C245.327 213.794 245.259 216.161 245.165 218.834C245.16 218.996 245.156 219.154 245.147 219.317C245.02 222.581 244.822 226.381 244.479 232.4C243.843 243.518 242.733 233.928 241.618 237.828C238.523 235.926 235.13 233.933 231.503 231.886C230.849 231.516 230.188 231.145 229.522 230.773C222.267 226.728 214.164 222.49 205.704 218.293C205.37 218.126 205.032 217.959 204.698 217.797C185.32 208.226 164.168 198.916 147.032 192.703C143.725 191.504 140.567 190.422 137.598 189.471C131.345 187.473 125.94 186.076 121.78 185.472C117.448 184.84 114.457 185.066 113.248 186.369C113.203 185.449 113.156 184.568 113.108 183.727C113.09 183.447 113.072 183.172 113.054 182.902C113.082 182.828 113.118 182.757 113.153 182.685C113.158 182.675 113.161 182.664 113.167 182.654C113.175 182.63 113.186 182.608 113.198 182.586C113.211 182.558 113.226 182.531 113.243 182.505C113.258 182.473 113.276 182.443 113.297 182.415C113.338 182.352 113.383 182.284 113.433 182.221C113.469 182.174 113.508 182.128 113.55 182.086C113.564 182.064 113.581 182.044 113.6 182.027C113.618 182.009 113.636 181.986 113.658 181.964C113.668 181.95 113.68 181.938 113.694 181.928C113.73 181.887 113.769 181.849 113.812 181.815C113.973 181.667 114.145 181.532 114.326 181.409C114.389 181.369 114.457 181.328 114.52 181.283C114.975 181.011 115.454 180.782 115.95 180.598C116.122 180.535 116.293 180.476 116.478 180.413C116.546 180.395 116.609 180.372 116.677 180.35C116.776 180.318 116.875 180.287 116.979 180.264C117.493 180.111 118.048 179.98 118.648 179.859C118.829 179.822 119.018 179.786 119.208 179.755C119.361 179.728 119.519 179.701 119.677 179.674C121.017 179.462 122.538 179.304 124.216 179.2C124.374 179.191 124.532 179.182 124.69 179.173C124.875 179.164 125.06 179.155 125.249 179.146C125.407 179.137 125.57 179.133 125.732 179.128C125.89 179.119 126.052 179.115 126.219 179.11C126.675 179.097 127.144 179.083 127.622 179.074C128.985 179.052 130.42 179.061 131.927 179.092C132.626 179.106 133.339 179.128 134.07 179.16C134.115 179.16 134.165 179.164 134.21 179.164C134.846 179.182 135.491 179.214 136.145 179.245C136.605 179.268 137.07 179.29 137.535 179.317C137.973 179.345 138.415 179.372 138.861 179.403C139.209 179.421 139.556 179.448 139.908 179.471C140.206 179.493 140.504 179.516 140.801 179.534C141.158 179.561 141.514 179.588 141.875 179.615C142.372 179.656 142.868 179.696 143.373 179.737C143.874 179.782 144.384 179.827 144.894 179.872C145.404 179.917 145.918 179.967 146.432 180.016C146.486 180.021 146.536 180.025 146.586 180.03C147.055 180.079 147.524 180.125 147.998 180.174C150.624 180.44 153.326 180.751 156.106 181.107C157.766 181.319 159.447 181.546 161.15 181.788C163.735 182.153 166.361 182.55 169.005 182.974C171.653 183.402 174.317 183.855 176.995 184.331C177.672 184.453 178.349 184.574 179.03 184.701C179.86 184.854 180.691 185.01 181.521 185.169C182.044 185.269 182.567 185.368 183.091 185.472C183.713 185.593 184.341 185.715 184.963 185.837C189.065 186.648 193.143 187.514 197.123 188.42C197.777 188.569 198.431 188.722 199.081 188.871C200.38 189.173 201.668 189.48 202.943 189.791C203.295 189.876 203.642 189.962 203.99 190.048C204.86 190.264 205.722 190.48 206.575 190.697V190.701C206.625 190.71 206.674 190.724 206.724 190.737C207.346 190.895 207.965 191.053 208.578 191.215C210.026 191.594 211.451 191.976 212.851 192.36C213.78 192.622 214.701 192.879 215.608 193.14C216.966 193.537 218.297 193.934 219.592 194.331C219.912 194.43 220.232 194.529 220.548 194.624C221.496 194.921 222.425 195.217 223.336 195.512C224.058 195.746 224.762 195.985 225.457 196.224C226.152 196.463 226.833 196.702 227.501 196.941C227.934 197.094 228.358 197.252 228.778 197.405C229.391 197.631 229.987 197.856 230.573 198.086C230.754 198.154 230.93 198.226 231.106 198.294C231.435 198.42 231.755 198.551 232.071 198.681C232.283 198.762 232.491 198.848 232.698 198.938C232.901 199.019 233.109 199.105 233.308 199.191C233.511 199.272 233.709 199.358 233.908 199.448C234.075 199.515 234.237 199.588 234.395 199.66C234.715 199.799 235.036 199.939 235.347 200.083C235.5 200.156 235.654 200.223 235.807 200.295L236.159 200.458C236.209 200.485 236.258 200.507 236.308 200.53C236.691 200.71 237.061 200.89 237.422 201.071C237.761 201.242 238.09 201.413 238.406 201.58C238.78 201.779 239.137 201.972 239.48 202.171C239.547 202.207 239.615 202.248 239.683 202.284C239.913 202.414 240.134 202.55 240.355 202.68C240.788 202.946 241.199 203.208 241.582 203.469C241.961 203.731 242.313 203.988 242.643 204.245C242.643 204.249 242.643 204.249 242.647 204.249C242.805 204.375 242.958 204.502 243.103 204.623C243.337 204.826 243.554 205.02 243.752 205.219C243.819 205.28 243.882 205.344 243.942 205.412C243.968 205.434 243.992 205.458 244.014 205.485C244.109 205.588 244.204 205.692 244.294 205.796C244.402 205.922 244.501 206.048 244.596 206.174C244.641 206.237 244.691 206.301 244.732 206.364C244.786 206.44 244.84 206.522 244.885 206.598C244.926 206.661 244.962 206.729 244.998 206.792C245.093 206.955 245.175 207.125 245.241 207.301C245.291 207.422 245.331 207.545 245.363 207.671C245.397 207.791 245.423 207.913 245.44 208.036Z" fill="black"/>
</g>
<defs>
<clipPath id="clip0_199_172">
<rect width="355" height="258" fill="white"/>
</clipPath>
</defs>
</svg>
