<svg width="258" height="230" viewBox="0 0 258 230" fill="none" xmlns="http://www.w3.org/2000/svg">
<g clip-path="url(#clip0_52_402)">
<path d="M255.737 87.9566C255.644 87.9567 255.554 87.9286 255.478 87.8761L130.299 1.3C129.918 1.03776 129.465 0.897617 129.002 0.898402C128.538 0.899187 128.086 1.04086 127.706 1.30439L3.42851 87.8752C3.33021 87.9437 3.20855 87.9706 3.09029 87.95C2.97203 87.9294 2.86685 87.8629 2.79791 87.7653C2.72896 87.6677 2.70188 87.5469 2.72264 87.4294C2.74339 87.312 2.81028 87.2075 2.90858 87.1391L127.186 0.568243C127.718 0.199357 128.351 0.00106336 129 4.26471e-06C129.649 -0.00105483 130.283 0.19517 130.816 0.562317L255.996 87.1382C256.075 87.1929 256.134 87.2713 256.165 87.3619C256.196 87.4525 256.198 87.5505 256.169 87.6419C256.14 87.7332 256.082 87.8129 256.005 87.8696C255.927 87.9262 255.833 87.9567 255.737 87.9566L255.737 87.9566Z" fill="#3F3D56"/>
<path d="M10.5298 91.0253L129.125 3.73926L248.619 97.2362L135.235 163.988L73.6773 150.053L10.5298 91.0253Z" fill="#E6E6E6"/>
<path d="M78.8735 205.217H20.2847C19.9249 205.217 19.5686 205.147 19.2361 205.011C18.9036 204.875 18.6015 204.674 18.3469 204.422C18.0924 204.17 17.8904 203.87 17.7526 203.54C17.6149 203.21 17.5439 202.856 17.5439 202.499C17.5439 202.141 17.6149 201.788 17.7526 201.458C17.8904 201.127 18.0924 200.828 18.3469 200.575C18.6015 200.323 18.9036 200.123 19.2361 199.986C19.5686 199.85 19.9249 199.78 20.2847 199.78H78.8735C79.2332 199.78 79.5895 199.85 79.922 199.986C80.2545 200.123 80.5567 200.323 80.8113 200.575C81.0658 200.828 81.2677 201.127 81.4055 201.458C81.5433 201.788 81.6142 202.141 81.6142 202.499C81.6142 202.856 81.5433 203.21 81.4055 203.54C81.2677 203.87 81.0658 204.17 80.8113 204.422C80.5567 204.674 80.2545 204.875 79.922 205.011C79.5895 205.147 79.2332 205.217 78.8735 205.217Z" fill="#2F5D62"/>
<path d="M41.305 193.53H20.2847C19.9249 193.531 19.5686 193.461 19.2361 193.324C18.9036 193.188 18.6015 192.988 18.3469 192.735C18.0924 192.483 17.8904 192.183 17.7526 191.853C17.6149 191.523 17.5439 191.169 17.5439 190.812C17.5439 190.455 17.6149 190.101 17.7526 189.771C17.8904 189.441 18.0924 189.141 18.3469 188.889C18.6015 188.636 18.9036 188.436 19.2361 188.3C19.5686 188.163 19.9249 188.093 20.2847 188.094H41.305C41.6648 188.093 42.0211 188.163 42.3536 188.3C42.6861 188.436 42.9883 188.636 43.2428 188.889C43.4974 189.141 43.6993 189.441 43.8371 189.771C43.9749 190.101 44.0458 190.455 44.0458 190.812C44.0458 191.169 43.9749 191.523 43.8371 191.853C43.6993 192.183 43.4974 192.483 43.2428 192.735C42.9883 192.988 42.6861 193.188 42.3536 193.324C42.0211 193.461 41.6648 193.531 41.305 193.53Z" fill="#2F5D62"/>
<path d="M130.793 139.643C130.347 139.643 129.906 139.557 129.494 139.39L56.353 109.251V14.9122C56.354 14.0779 56.6881 13.2782 57.2821 12.6883C57.8761 12.0984 58.6814 11.7666 59.5214 11.7656H199.837C200.677 11.7666 201.483 12.0984 202.077 12.6883C202.671 13.2782 203.005 14.0779 203.006 14.9122V109.317L202.868 109.376L132.131 139.375C131.707 139.552 131.252 139.643 130.793 139.643Z" fill="white"/>
<path d="M130.793 139.867C130.318 139.867 129.847 139.776 129.408 139.598L56.1265 109.401V14.9118C56.1275 14.018 56.4855 13.1611 57.1219 12.5291C57.7583 11.8971 58.6212 11.5415 59.5212 11.5405H199.837C200.737 11.5415 201.6 11.8971 202.236 12.5291C202.873 13.1611 203.231 14.018 203.232 14.9118V109.465L132.219 139.582C131.768 139.77 131.283 139.867 130.793 139.867ZM57.0317 108.801L129.753 138.767C130.431 139.04 131.191 139.035 131.866 138.754L202.326 108.872V14.9118C202.326 14.2564 202.063 13.628 201.596 13.1645C201.13 12.701 200.497 12.4403 199.837 12.4395H59.5212C58.8612 12.4403 58.2285 12.701 57.7618 13.1645C57.2951 13.628 57.0325 14.2564 57.0317 14.9118L57.0317 108.801Z" fill="#3F3D56"/>
<path d="M254.832 87.0576H254.741L202.779 109.092L131.684 139.241C131.406 139.357 131.108 139.417 130.807 139.419C130.506 139.42 130.207 139.363 129.928 139.25L56.5789 109.029L3.34037 87.0936L3.25904 87.0576H3.16842C2.32839 87.0585 1.52303 87.3903 0.929036 87.9802C0.335043 88.5701 0.000932082 89.3699 0 90.2041V226.853C0.000933278 227.688 0.335044 228.487 0.929036 229.077C1.52303 229.667 2.32839 229.999 3.16842 230H254.832C255.672 229.999 256.477 229.667 257.071 229.077C257.665 228.487 257.999 227.688 258 226.853V90.2041C257.999 89.3699 257.665 88.5701 257.071 87.9802C256.477 87.3903 255.672 87.0585 254.832 87.0576ZM257.095 226.853C257.095 227.449 256.856 228.021 256.432 228.442C256.007 228.864 255.432 229.101 254.832 229.101H3.16842C2.56827 229.101 1.99277 228.864 1.56839 228.442C1.14402 228.021 0.905503 227.449 0.905263 226.853V90.2041C0.906084 89.6229 1.1331 89.0645 1.53885 88.6457C1.9446 88.2268 2.49767 87.9799 3.08245 87.9566L56.5789 110L129.579 140.081C130.37 140.4 131.255 140.396 132.042 140.068L202.779 110.068L254.922 87.9566C255.506 87.9817 256.058 88.2292 256.462 88.6479C256.867 89.0665 257.093 89.6239 257.095 90.2041V226.853Z" fill="#3F3D56"/>
<path d="M130.062 112.892C127.361 112.897 124.733 112.03 122.572 110.421L122.439 110.321L94.2346 88.8767C92.9284 87.8828 91.8321 86.6431 91.0084 85.2285C90.1846 83.8139 89.6495 82.2519 89.4336 80.6319C89.2176 79.0119 89.3251 77.3655 89.7499 75.7868C90.1746 74.208 90.9084 72.7278 91.9092 71.4307C92.91 70.1335 94.1582 69.0448 95.5827 68.2267C97.0072 67.4087 98.58 66.8772 100.211 66.6628C101.843 66.4483 103.5 66.5551 105.09 66.9769C106.68 67.3987 108.17 68.1274 109.477 69.1213L127.745 83.0324L170.916 27.1201C171.917 25.8232 173.166 24.735 174.591 23.9174C176.015 23.0998 177.588 22.5689 179.22 22.3551C180.851 22.1412 182.509 22.2486 184.098 22.671C185.688 23.0934 187.178 23.8226 188.484 24.817L188.216 25.179L188.491 24.8223C191.125 26.8327 192.849 29.7987 193.283 33.0695C193.718 36.3403 192.829 39.6488 190.81 42.2691L140.031 108.035C138.856 109.551 137.346 110.777 135.617 111.62C133.888 112.462 131.987 112.897 130.062 112.892Z" fill="#2F5D62"/>
</g>
<defs>
<clipPath id="clip0_52_402">
<rect width="258" height="230" fill="white"/>
</clipPath>
</defs>
</svg>
